<?xml version="1.0" encoding="UTF-8"?>
<svg id="Layer_2" data-name="Layer 2" xmlns="http://www.w3.org/2000/svg" viewBox="0 0 1507.4 198.2" preserveAspectRatio="none">
  <defs>
    <style>
      .cls-1 {
        fill: #fdfddd;
        fill-rule: evenodd;
      }
    </style>
  </defs>
  <g id="Layer_1-2" data-name="Layer 1">
    <g>
      <path class="cls-1" d="M800.9,1h107.1c16,0,29,13,29,29v132.2c0,16-13,29-29,29h-107.1c-16,0-29-13-29-29V29.9c0-16,13-28.9,29-28.9Z"/>
      <path class="cls-1" d="M1001.5,3.7h107.1c16,0,29,13,29,29v132.2c0,16-13,29-29,29h-107.1c-16,0-29-13-29-29V32.7c.1-16,13.1-29,29-29Z"/>
      <path class="cls-1" d="M1194.3,4.5h107.1c16,0,29,13,29,29v132.2c0,16-13,29-29,29h-107.1c-16,0-29-13-29-29V33.4c.1-16,13-28.9,29-28.9Z"/>
      <path class="cls-1" d="M1371.3,0h107.1c16,0,29,13,29,29v132.2c0,16-13,29-29,29h-107.1c-16,0-29-13-29-29V28.9c0-16,13-28.9,29-28.9Z"/>
      <path class="cls-1" d="M604.9,8h107.1c16,0,29,13,29,29v132.2c0,16-13,29-29,29h-107.1c-16,0-29-13-29-29V36.9c0-16,13-28.9,29-28.9Z"/>
      <path class="cls-1" d="M424.8,0h107.1c16,0,29,13,29,29v132.2c0,16-13,29-29,29h-107.1c-16,0-29-13-29-29V28.9c.1-16,13.1-28.9,29-28.9Z"/>
      <path class="cls-1" d="M227,0h107.1c16,0,29,13,29,29v132.2c0,16-13,29-29,29h-107.1c-16,0-29-13-29-29V28.9c0-16,13-28.9,29-28.9Z"/>
      <path class="cls-1" d="M29,0h107.1c16,0,29,13,29,29v132.2c0,16-13,29-29,29H29c-16,0-29-13-29-29V28.9C0,12.9,13,0,29,0Z"/>
    </g>
  </g>
</svg>